<svg width="14" height="8" viewBox="0 0 14 8" fill="none" xmlns="http://www.w3.org/2000/svg">
<path d="M7.07114 5.31388L12.0211 0.363883C12.1134 0.268373 12.2237 0.192191 12.3457 0.139782C12.4677 0.0873726 12.599 0.0597864 12.7317 0.0586326C12.8645 0.0574788 12.9962 0.0827805 13.1191 0.133061C13.242 0.183342 13.3536 0.257595 13.4475 0.351488C13.5414 0.445381 13.6157 0.557033 13.666 0.679929C13.7162 0.802825 13.7415 0.934505 13.7404 1.06728C13.7392 1.20006 13.7117 1.33128 13.6592 1.45329C13.6068 1.57529 13.5307 1.68564 13.4351 1.77788L7.77814 7.43488C7.59062 7.62235 7.33631 7.72767 7.07114 7.72767C6.80598 7.72767 6.55167 7.62235 6.36414 7.43488L0.707144 1.77788C0.611633 1.68564 0.535451 1.57529 0.483042 1.45329C0.430633 1.33128 0.403047 1.20006 0.401893 1.06728C0.400739 0.934504 0.426041 0.802824 0.476322 0.679928C0.526603 0.557032 0.600856 0.44538 0.694749 0.351487C0.788641 0.257594 0.900293 0.183341 1.02319 0.13306C1.14609 0.0827795 1.27777 0.0574778 1.41054 0.0586316C1.54332 0.0597854 1.67454 0.0873717 1.79655 0.139781C1.91855 0.19219 2.0289 0.268372 2.12114 0.363882L7.07114 5.31388Z" fill="currentColor"/>
</svg>
