<svg width="800" height="600" viewBox="0 0 47 38" fill="none" xmlns="http://www.w3.org/2000/svg">
<path d="M6.95393 37.3356L0.528081 28.1585L3.06233 26.384C6.29628 24.1196 8.95734 24.4785 11.0455 27.4607C12.0373 28.8771 12.3848 30.3314 12.0881 31.8236C11.7926 33.3085 10.8918 34.5782 9.38579 35.6328L6.95393 37.3356ZM2.28434 28.3784L7.34794 35.61L8.71746 34.651C9.92059 33.8086 10.6315 32.8308 10.8503 31.7175C11.069 30.6043 10.7646 29.4567 9.9371 28.2749C8.29106 25.9242 6.21798 25.6241 3.71786 27.3747L2.28434 28.3784ZM22.3182 26.5774L17.4544 29.983L11.0286 20.806L15.6875 17.5437L16.3686 18.5165L12.7848 21.0259L14.9223 24.0785L18.2373 21.7573L18.914 22.7237L15.599 25.0448L17.8485 28.2575L21.637 25.6047L22.3182 26.5774ZM34.7513 17.8716L33.6826 18.6199L29.3718 12.4635C29.0313 11.9771 28.6444 11.361 28.2112 10.6153L28.1856 10.6332C28.373 11.1187 28.4889 11.4795 28.5333 11.7154L30.3356 20.9635L29.8108 21.331L21.7791 16.521C21.5461 16.379 21.2348 16.1296 20.8452 15.773L20.8196 15.7909C21.1107 16.1339 21.5475 16.7214 22.13 17.5533L26.4318 23.697L25.3951 24.4229L18.9692 15.2459L20.39 14.2511L27.6869 18.679C28.248 19.0173 28.6457 19.2856 28.88 19.484L28.9184 19.4571C28.7493 18.8252 28.6336 18.3467 28.5713 18.0216L26.9816 9.63556L28.3255 8.69453L34.7513 17.8716ZM42.2876 12.8236C40.9863 13.7347 39.6429 14.0364 38.2575 13.7285C36.8762 13.4176 35.7047 12.5753 34.7427 11.2015C33.7091 9.72533 33.2835 8.26848 33.4659 6.83096C33.6483 5.39344 34.4264 4.19371 35.8002 3.23178C37.0673 2.34453 38.3858 2.05718 39.7555 2.36975C41.1294 2.67933 42.2989 3.52315 43.2638 4.9012C44.3124 6.39871 44.7446 7.86047 44.5604 9.28647C44.3763 10.7125 43.6187 11.8915 42.2876 12.8236ZM36.4046 4.25829C35.4403 4.93344 34.9009 5.82934 34.7863 6.94598C34.6717 8.06263 35.0102 9.18625 35.8019 10.3169C36.5935 11.4475 37.5236 12.1537 38.592 12.4356C39.6617 12.7102 40.6681 12.5174 41.6109 11.8572C42.6178 11.1522 43.1813 10.268 43.3015 9.20472C43.4217 8.14141 43.068 7.01886 42.2405 5.83706C41.3921 4.6254 40.4548 3.88609 39.4286 3.61913C38.4024 3.35217 37.3944 3.56522 36.4046 4.25829Z" fill="rgba(255, 255, 255, 0.3)"/>
</svg>
